# xmcd CD database file
#
# Track frame offsets:
#	150
#	20690
#	43363
#	63938
#	86700
#	106928
#	137955
#
# Disc length: 4440 seconds
#
# Revision: 4
# Processed by: cddbd v1.5PL3 Copyright (c) Steve Scherf et al.
# Submitted via: CDex 1.51
#
DISCID=61115607
DTITLE=MISIA - IN MY SOUL／SNOW SONG
DYEAR=2003
DGENRE=JPop
TTITLE0=IN MY SOUL
TTITLE1=SNOW SONG
TTITLE2=IN MY SOUL (INSTRUMENTAL)
TTITLE3=SNOW SONG (INSTRUMENTAL)
TTITLE4=IN MY SOUL (MEGA RAIDERS REMIX feat.MACCHO for OZROSAURUS)
TTITLE5=SNOW SONG (DJ WATARAI REMIX)
TTITLE6=DATA
EXTD=YEAR: 2003
EXTT0=
EXTT1=
EXTT2=
EXTT3=
EXTT4=
EXTT5=
EXTT6=
PLAYORDER=
